<svg xmlns="http://www.w3.org/2000/svg" id="shop" viewBox="0 0 100 100">
  <path d="M43.75 966.945c-4.167 0-7.859 4.194-8.333 8.334l-1.433 12.5h-6.9c-2.084 0-4.167 2.083-4.167 4.166l-4.167 41.667c0 2.083 2.083 4.167 4.167 4.167h54.166c2.084 0 4.167-2.084 4.167-4.167l-4.167-41.667c0-2.083-2.083-4.166-4.166-4.166h-6.901l-1.433-12.5c-.474-4.14-4.166-8.334-8.333-8.334zm0 4.167h12.5c2.083 0 3.93 2.097 4.167 4.167l1.432 12.5H38.151l1.432-12.5c.237-2.07 2.084-4.167 4.167-4.167z" color="#000" overflow="visible" style="marker:none" transform="translate(0 -952.362)"></path>
</svg>
